<svg width="200" height="89" viewBox="0 0 200 89" fill="none" xmlns="http://www.w3.org/2000/svg">
<path d="M115.068 44.4379C115.068 35.8317 116.835 28.1771 120.369 21.4742C123.985 14.6885 129.08 9.43375 135.654 5.7099C142.228 1.9033 149.789 0 158.335 0C169.183 0 178.305 2.9377 185.701 8.81311C186.301 9.28285 186.883 9.76646 187.448 10.264C197.5 19.1116 187.381 32.5216 173.99 32.5216C172.429 29.2115 170.251 26.6876 167.457 24.9498C164.745 23.212 161.582 22.3431 157.966 22.3431C152.378 22.3431 147.899 24.3705 144.529 28.4254C141.242 32.3975 139.599 37.735 139.599 44.4379C139.599 51.2236 141.242 56.6439 144.529 60.6987C147.899 64.6709 152.378 66.6569 157.966 66.6569C161.582 66.6569 164.745 65.788 167.457 64.0502C170.251 62.3124 172.429 59.7885 173.99 56.4784C187.381 56.4784 197.489 69.8549 187.511 78.785C186.926 79.3083 186.323 79.817 185.701 80.311C178.305 86.1037 169.183 89 158.335 89C149.789 89 142.228 87.1381 135.654 83.4142C129.08 79.6076 123.985 74.3529 120.369 67.6499C116.835 60.8643 115.068 53.1269 115.068 44.4379Z" fill="#F2A365"/>
<path d="M123.13 43.3193C128.211 44.4793 132.227 47.0478 135.177 51.0249C138.21 54.9192 139.726 59.3934 139.726 64.4476C139.726 71.9046 137.185 77.746 132.104 81.9716C127.023 86.1973 119.892 88.3101 110.713 88.3101H67.8082V0.689941H109.361C118.212 0.689941 125.138 2.67849 130.137 6.65557C135.218 10.6327 137.759 16.2254 137.759 23.4339C137.759 28.571 136.407 32.8795 133.702 36.3594C131.08 39.7565 127.555 42.0765 123.13 43.3193ZM91.9038 35.4894H104.074C110.139 35.4894 113.172 32.9623 113.172 27.9081C113.172 22.6882 110.139 20.0782 104.074 20.0782H91.9038V35.4894ZM105.919 68.6732C111.983 68.6732 115.016 66.1047 115.016 60.9676C115.016 58.3163 114.196 56.2863 112.557 54.8777C111 53.4692 108.746 52.7649 105.796 52.7649H91.9038V68.6732H105.919Z" fill="#222831"/>
<path d="M60.895 74.0175H30.0777L25.3934 88.3101C13.0402 88.3101 4.43391 76.0469 8.63428 64.4297L22.2076 26.8889C27.8925 11.1658 42.8197 0.689941 59.539 0.689941L82.4496 64.3029C86.6582 75.9884 77.9994 88.3101 65.5792 88.3101L60.895 74.0175ZM54.8548 55.3749L45.4863 27.0381L36.2411 55.3749H54.8548Z" fill="#30475E"/>
</svg>
